<?xml version="1.0" encoding="UTF-8" standalone="no"?>
<svg
   xmlns:dc="http://purl.org/dc/elements/1.1/"
   xmlns:cc="http://creativecommons.org/ns#"
   xmlns:rdf="http://www.w3.org/1999/02/22-rdf-syntax-ns#"
   xmlns:svg="http://www.w3.org/2000/svg"
   xmlns="http://www.w3.org/2000/svg"
   xmlns:sodipodi="http://sodipodi.sourceforge.net/DTD/sodipodi-0.dtd"
   xmlns:inkscape="http://www.inkscape.org/namespaces/inkscape"
   width="132"
   height="99"
   viewBox="0 0 132 99"
   version="1.1"
   id="svg3"
   sodipodi:docname="logo11.svg"
   inkscape:version="1.0.1 (1.0.1+r73)">
  <metadata
     id="metadata9">
    <rdf:RDF>
      <cc:Work
         rdf:about="">
        <dc:format>image/svg+xml</dc:format>
        <dc:type
           rdf:resource="http://purl.org/dc/dcmitype/StillImage" />
        <dc:title></dc:title>
      </cc:Work>
    </rdf:RDF>
  </metadata>
  <defs
     id="defs7" />
  <sodipodi:namedview
     pagecolor="#ffffff"
     bordercolor="#666666"
     borderopacity="1"
     objecttolerance="10"
     gridtolerance="10"
     guidetolerance="10"
     inkscape:pageopacity="0"
     inkscape:pageshadow="2"
     inkscape:window-width="1225"
     inkscape:window-height="1015"
     id="namedview5"
     showgrid="false"
     inkscape:pagecheckerboard="true"
     inkscape:zoom="3.2780451"
     inkscape:cx="70.268025"
     inkscape:cy="68.084908"
     inkscape:window-x="2068"
     inkscape:window-y="36"
     inkscape:window-maximized="0"
     inkscape:current-layer="svg3"
     inkscape:document-rotation="0" />
  <path
     id="rect849"
     style="fill:#ffffff;fill-opacity:1;stroke-width:1.10593"
     d="M 0 0 L 0 99 L 132 99 L 132 0 L 0 0 z M 81.470703 34.113281 C 82.819186 34.113281 84.096779 34.251435 85.300781 34.525391 C 86.520837 34.799346 87.675949 35.2099 88.767578 35.757812 C 89.425767 35.161556 90.067279 34.863281 90.693359 34.863281 C 91.415761 34.863281 92.001677 35.113715 92.451172 35.613281 C 92.900666 36.112848 93.126953 36.957877 93.126953 38.150391 L 93.126953 41.365234 C 93.126953 42.557748 92.893282 43.412053 92.427734 43.927734 C 91.97824 44.427301 91.392323 44.677734 90.669922 44.677734 C 90.092 44.677734 89.595122 44.501016 89.177734 44.146484 C 88.856667 43.904759 88.582169 43.372649 88.357422 42.550781 C 88.148728 41.712799 87.909625 41.147493 87.636719 40.857422 C 87.203277 40.390085 86.431901 39.97953 85.324219 39.625 C 84.23259 39.254353 83.005162 39.070312 81.640625 39.070312 C 79.682114 39.070312 77.97996 39.471591 76.535156 40.277344 C 75.507741 40.8736 74.560241 41.9139 73.693359 43.396484 C 72.826477 44.879069 72.392578 46.490043 72.392578 48.230469 L 72.392578 51.808594 C 72.392578 54.467576 73.156571 56.489105 74.681641 57.875 C 76.222764 59.244778 78.662852 59.929688 82.001953 59.929688 C 84.265478 59.929688 86.327262 59.502535 88.189453 58.648438 L 88.189453 55.095703 L 83.15625 55.095703 C 81.968301 55.095703 81.119177 54.871144 80.605469 54.419922 C 80.107815 53.952585 79.857422 53.346761 79.857422 52.605469 C 79.857422 51.864177 80.107815 51.269581 80.605469 50.818359 C 81.119177 50.351023 81.968301 50.117188 83.15625 50.117188 L 91.921875 50.140625 C 93.109825 50.140625 93.953518 50.367139 94.451172 50.818359 C 94.96488 51.269581 95.220703 51.864177 95.220703 52.605469 C 95.220703 53.185611 95.04458 53.6938 94.691406 54.128906 C 94.354285 54.564012 93.833301 54.886207 93.126953 55.095703 L 93.126953 61.744141 C 90.895534 62.952769 88.993153 63.773878 87.419922 64.208984 C 85.862745 64.660206 84.177312 64.886719 82.363281 64.886719 C 79.842903 64.886719 77.50662 64.507407 75.355469 63.75 C 73.669865 63.169858 72.336678 62.437109 71.357422 61.550781 C 70.39422 60.664454 69.504269 59.359076 68.685547 57.634766 C 67.866826 55.89434 67.457031 53.951896 67.457031 51.808594 L 67.457031 48.230469 C 67.457031 44.926883 68.460126 41.977335 70.466797 39.382812 C 73.163763 35.869732 76.831279 34.113281 81.470703 34.113281 z M 9.5195312 34.839844 L 14.9375 34.863281 L 21.65625 49.777344 L 28.253906 34.839844 L 33.720703 34.863281 C 34.908653 34.863281 35.752346 35.089795 36.25 35.541016 C 36.763707 35.992238 37.019531 36.588786 37.019531 37.330078 C 37.019531 36.588786 37.267971 35.992238 37.765625 35.541016 C 38.279334 35.07368 39.13041 34.839844 40.318359 34.839844 L 62.472656 34.863281 L 62.472656 42.40625 C 62.472656 43.582649 62.248322 44.427678 61.798828 44.943359 C 61.349333 45.442926 60.75408 45.693359 60.015625 45.693359 C 59.27717 45.693359 58.676486 45.442926 58.210938 44.943359 C 57.761443 44.443793 57.535156 43.598763 57.535156 42.40625 L 57.535156 39.818359 L 46.025391 39.818359 L 46.025391 46.974609 L 50.359375 46.974609 C 50.359375 45.685406 50.479902 44.855021 50.720703 44.484375 C 51.218358 43.694737 51.924802 43.298828 52.839844 43.298828 C 53.562246 43.298828 54.148162 43.558537 54.597656 44.074219 C 55.063204 44.573785 55.296875 45.418815 55.296875 46.611328 L 55.296875 52.316406 C 55.296875 53.396114 55.168963 54.121541 54.912109 54.492188 C 54.398401 55.249595 53.706726 55.626953 52.839844 55.626953 C 51.924802 55.626953 51.218358 55.232997 50.720703 54.443359 C 50.479902 54.072714 50.359375 53.235007 50.359375 51.929688 L 46.025391 51.929688 L 46.025391 59.205078 L 58.619141 59.205078 L 58.619141 56.521484 C 58.619141 55.32897 58.843474 54.483942 59.292969 53.984375 C 59.758517 53.468694 60.361155 53.210938 61.099609 53.210938 C 61.822011 53.210938 62.407927 53.468694 62.857422 53.984375 C 63.322969 54.483942 63.556641 55.32897 63.556641 56.521484 L 63.556641 64.160156 L 40.318359 64.160156 C 39.13041 64.160156 38.279334 63.935596 37.765625 63.484375 C 37.531538 63.264549 37.358352 63.01091 37.234375 62.730469 C 37.106069 63.010201 36.925293 63.262716 36.681641 63.484375 C 36.183986 63.935596 35.342246 64.160156 34.154297 64.160156 L 27.652344 64.160156 C 26.480447 64.160156 25.638707 63.935596 25.125 63.484375 C 24.627345 63.017038 24.376953 62.411214 24.376953 61.669922 C 24.376953 60.944745 24.627345 60.357471 25.125 59.90625 C 25.638707 59.438913 26.480447 59.205078 27.652344 59.205078 L 29.458984 59.205078 L 29.458984 44.435547 L 23.798828 57.199219 L 19.513672 57.199219 L 13.783203 44.435547 L 13.783203 59.205078 L 15.564453 59.205078 C 16.752402 59.205078 17.594142 59.438913 18.091797 59.90625 C 18.605505 60.357471 18.863281 60.95402 18.863281 61.695312 C 18.863281 62.42049 18.605505 63.017038 18.091797 63.484375 C 17.594142 63.935596 16.752402 64.160156 15.564453 64.160156 L 9.0859375 64.160156 C 7.8979881 64.160156 7.0562482 63.935596 6.5585938 63.484375 C 6.0448859 63.017038 5.7871094 62.411214 5.7871094 61.669922 C 5.7871094 60.944745 6.0375018 60.357471 6.5351562 59.90625 C 7.0328107 59.438913 7.8022341 59.205078 8.8457031 59.205078 L 8.8457031 39.818359 C 7.9788212 39.737784 7.3205881 39.472706 6.8710938 39.021484 C 6.4376527 38.570263 6.2207031 38.00691 6.2207031 37.330078 C 6.2207031 36.588786 6.4691424 35.992238 6.9667969 35.541016 C 7.4805047 35.07368 8.3315822 34.839844 9.5195312 34.839844 z M 37.019531 37.330078 C 37.019531 38.00691 36.795197 38.570263 36.345703 39.021484 C 35.896208 39.472706 35.24536 39.737784 34.394531 39.818359 L 34.394531 59.205078 C 35.438001 59.205078 36.209377 59.438913 36.707031 59.90625 C 36.939182 60.124258 37.112563 60.372299 37.236328 60.646484 C 37.364467 60.36942 37.546338 60.121165 37.791016 59.90625 C 38.304723 59.438913 39.146463 59.205078 40.318359 59.205078 L 41.089844 59.205078 L 41.089844 39.818359 L 40.318359 39.818359 C 39.13041 39.818359 38.279334 39.593799 37.765625 39.142578 C 37.267971 38.675241 37.019531 38.07137 37.019531 37.330078 z M 102.32422 34.839844 L 112.99219 34.863281 L 122.81641 59.205078 C 123.97225 59.205078 124.73429 59.333956 125.10352 59.591797 C 125.84198 60.123594 126.21289 60.825101 126.21289 61.695312 C 126.21289 62.42049 125.9625 63.017038 125.46484 63.484375 C 124.96719 63.935596 124.12545 64.160156 122.9375 64.160156 L 116.29102 64.160156 C 115.10306 64.160156 114.25199 63.935596 113.73828 63.484375 C 113.24063 63.017038 112.99219 62.411214 112.99219 61.669922 C 112.99219 60.944745 113.24063 60.357471 113.73828 59.90625 C 114.25199 59.438913 115.10306 59.205078 116.29102 59.205078 L 117.49609 59.205078 L 116.31445 56.183594 L 104.32422 56.183594 L 103.11914 59.205078 L 104.32422 59.205078 C 105.51217 59.205078 106.35391 59.438913 106.85156 59.90625 C 107.36527 60.357471 107.62305 60.95402 107.62305 61.695312 C 107.62305 62.42049 107.36527 63.017038 106.85156 63.484375 C 106.35391 63.935596 105.51217 64.160156 104.32422 64.160156 L 97.677734 64.160156 C 96.489785 64.160156 95.646092 63.935596 95.148438 63.484375 C 94.63473 63.017038 94.378906 62.411214 94.378906 61.669922 C 94.378906 60.928629 94.644067 60.324758 95.173828 59.857422 C 95.703589 59.390086 96.576819 59.172849 97.796875 59.205078 L 105.55078 39.818359 L 102.32422 39.818359 C 101.13627 39.818359 100.28519 39.593799 99.771484 39.142578 C 99.27383 38.675241 99.025391 38.07137 99.025391 37.330078 C 99.025391 36.588786 99.27383 35.992238 99.771484 35.541016 C 100.28519 35.07368 101.13627 34.839844 102.32422 34.839844 z M 110.29492 41.414062 L 106.29883 51.228516 L 114.26758 51.228516 L 110.29492 41.414062 z " />
</svg>
