<?xml version="1.0" encoding="utf-8"?>
<svg version="1.1" id="Layer_1" xmlns="http://www.w3.org/2000/svg" xmlns:xlink="http://www.w3.org/1999/xlink" width="48"
     height="42" x="0px" y="0px"
     viewBox="0 0 48.72 42.42" style="enable-background:new 0 0 48.72 42.42;" xml:space="preserve">
<style type="text/css">
	.st0{
	fill-rule:evenodd;
	clip-rule:evenodd;
	fill:#FFFFFF;}
</style>
    <g>
	<g>
		<path class="st0" d="M16.46,16.9h-2.29l1.1,4.25h3.01C17.44,19.88,16.82,18.44,16.46,16.9z M16.13,14.06
			c0-1.48,0.27-2.89,0.73-4.21h-4.52l1.1,4.24h2.69C16.14,14.08,16.13,14.07,16.13,14.06z M19.75,34.96c-1.28,0-2.32,1.04-2.32,2.32
			s1.04,2.32,2.32,2.32c1.28,0,2.32-1.04,2.32-2.32C22.07,36,21.03,34.96,19.75,34.96z M16.01,23.96l1.1,4.24h4.96v-3.4
			c-0.41-0.26-0.81-0.54-1.19-0.84C20.88,23.96,16.01,23.96,16.01,23.96z M38.1,34.96c-1.28,0-2.32,1.04-2.32,2.32
			s1.04,2.32,2.32,2.32s2.32-1.04,2.32-2.32S39.38,34.96,38.1,34.96z M35.78,24.69v3.51h4.96l1.1-4.24h-5.05
			C36.47,24.22,36.13,24.46,35.78,24.69z M41.54,14.06c0,0.01,0,0.02,0,0.03h2.87l1.1-4.24h-4.7
			C41.27,11.17,41.54,12.58,41.54,14.06z M19.75,42.42c-2.83,0-5.13-2.3-5.13-5.13c0-2.83,2.3-5.13,5.13-5.13s5.13,2.3,5.13,5.13
			C24.88,40.11,22.58,42.42,19.75,42.42z M38.1,42.42c-2.83,0-5.13-2.3-5.13-5.13c0-2.83,2.3-5.13,5.13-5.13
			c2.83,0,5.13,2.3,5.13,5.13C43.23,40.11,40.93,42.42,38.1,42.42z M48.68,8.8l-5.5,21.16c-0.16,0.62-0.72,1.05-1.36,1.05h-25.8
			c-0.64,0-1.2-0.43-1.36-1.05L9.16,8.8l0,0l-1.56-6H1.4C0.62,2.8,0,2.17,0,1.4C0,0.62,0.63,0,1.4,0h7.28c0.64,0,1.2,0.43,1.36,1.05
			l1.56,6h6.64c2.28-3.42,6.16-5.68,10.58-5.68s8.31,2.26,10.58,5.68h7.91c0.43,0,0.84,0.2,1.11,0.55
			C48.7,7.93,48.79,8.38,48.68,8.8z M24.88,26.13v2.07h8.09v-2.14c-1.3,0.45-2.69,0.7-4.14,0.7C27.45,26.77,26.13,26.54,24.88,26.13
			z M39.38,21.15h3.19l1.1-4.25H41.2C40.86,18.44,40.24,19.88,39.38,21.15z"/>
	</g>
</g>
</svg>
