<?xml version="1.0" encoding="utf-8"?>
<!-- Generator: Adobe Illustrator 24.0.0, SVG Export Plug-In . SVG Version: 6.00 Build 0)  -->
<svg version="1.1" id="Layer_1" xmlns="http://www.w3.org/2000/svg" xmlns:xlink="http://www.w3.org/1999/xlink" width="63"
     height="99" x="0px" y="0px"
     viewBox="0 0 63 99" style="enable-background:new 0 0 63 99;" xml:space="preserve">
<style type="text/css">
	.st0{fill-rule:evenodd;
	     clip-rule:evenodd;
	      fill:#FFFFFF;}
</style>
    <g>
	<g>
		<path class="st0" d="M19.42,45.79h-2.29l1.1,4.25h3.01C20.4,48.77,19.78,47.33,19.42,45.79z M19.09,42.95
			c0-1.48,0.27-2.89,0.73-4.21H15.3l1.1,4.24h2.69C19.1,42.97,19.09,42.96,19.09,42.95z M22.71,63.85c-1.28,0-2.32,1.04-2.32,2.32
			s1.04,2.32,2.32,2.32c1.28,0,2.32-1.04,2.32-2.32C25.03,64.89,23.99,63.85,22.71,63.85z M18.97,52.85l1.1,4.24h4.96v-3.4
			c-0.41-0.26-0.81-0.54-1.19-0.84C23.84,52.85,18.97,52.85,18.97,52.85z M41.06,63.85c-1.28,0-2.32,1.04-2.32,2.32
			s1.04,2.32,2.32,2.32s2.32-1.04,2.32-2.32S42.34,63.85,41.06,63.85z M38.74,53.58v3.51h4.96l1.1-4.24h-5.05
			C39.43,53.11,39.09,53.35,38.74,53.58z M44.5,42.95c0,0.01,0,0.02,0,0.03h2.87l1.1-4.24h-4.7C44.23,40.06,44.5,41.47,44.5,42.95z
			 M0,0v99h63V0H0z M22.71,71.31c-2.83,0-5.13-2.3-5.13-5.13c0-2.83,2.3-5.13,5.13-5.13s5.13,2.3,5.13,5.13
			C27.84,69,25.54,71.31,22.71,71.31z M41.06,71.31c-2.83,0-5.13-2.3-5.13-5.13c0-2.83,2.3-5.13,5.13-5.13
			c2.83,0,5.13,2.3,5.13,5.13C46.19,69,43.89,71.31,41.06,71.31z M51.64,37.69l-5.5,21.16c-0.16,0.62-0.72,1.05-1.36,1.05h-25.8
			c-0.64,0-1.2-0.43-1.36-1.05l-5.5-21.16l0,0l-1.56-6h-6.2c-0.78,0-1.4-0.63-1.4-1.4c0-0.78,0.63-1.4,1.4-1.4h7.28
			c0.64,0,1.2,0.43,1.36,1.05l1.56,6h6.64c2.28-3.42,6.16-5.68,10.58-5.68s8.31,2.26,10.58,5.68h7.91c0.43,0,0.84,0.2,1.11,0.55
			C51.66,36.82,51.75,37.27,51.64,37.69z M27.84,55.02v2.07h8.09v-2.14c-1.3,0.45-2.69,0.7-4.14,0.7
			C30.41,55.66,29.09,55.43,27.84,55.02z M42.34,50.04h3.19l1.1-4.25h-2.47C43.82,47.33,43.2,48.77,42.34,50.04z"/>
	</g>
</g>
</svg>
