<?xml version="1.0" encoding="utf-8"?>
<svg version="1.1" id="svg847" xmlns="http://www.w3.org/2000/svg" xmlns:xlink="http://www.w3.org/1999/xlink" width="132"
     height="99" x="0px" y="0px"
     viewBox="0 0 401.39 299.18" style="enable-background:new 0 0 401.39 299.18;" xml:space="preserve">
<style type="text/css">
	.st0{
	 fill:#FF0000;}
</style>
    <g id="g336">
	<g id="g374" transform="matrix(1.4555161,0,0,1.7021342,-17.952982,18.341056)">
		<path class="st0" d="M97.12,59.71c-2.5,0-4.28-0.42-5.35-1.24c-1.06-0.83-1.59-1.9-1.59-3.24c0,1.22-0.47,2.23-1.42,3.04
			c-0.95,0.81-2.32,1.29-4.1,1.43v34.85c2.19,0,3.81,0.42,4.86,1.26c0.49,0.39,0.86,0.83,1.11,1.32c0.27-0.5,0.65-0.95,1.17-1.33
			c1.08-0.83,2.85-1.24,5.32-1.24h1.62V59.71H97.12z M97.12,59.71c-2.5,0-4.28-0.42-5.35-1.24c-1.06-0.83-1.59-1.9-1.59-3.24
			c0,1.22-0.47,2.23-1.42,3.04c-0.95,0.81-2.32,1.29-4.1,1.43v34.85c2.19,0,3.81,0.42,4.86,1.26c0.49,0.39,0.86,0.83,1.11,1.32
			c0.27-0.5,0.65-0.95,1.17-1.33c1.08-0.83,2.85-1.24,5.32-1.24h1.62V59.71H97.12z M97.12,59.71c-2.5,0-4.28-0.42-5.35-1.24
			c-1.06-0.83-1.59-1.9-1.59-3.24c0,1.22-0.47,2.23-1.42,3.04c-0.95,0.81-2.32,1.29-4.1,1.43v34.85c2.19,0,3.81,0.42,4.86,1.26
			c0.49,0.39,0.86,0.83,1.11,1.32c0.27-0.5,0.65-0.95,1.17-1.33c1.08-0.83,2.85-1.24,5.32-1.24h1.62V59.71H97.12z M244.23,62.57
			l-8.4,17.64h16.76L244.23,62.57z M244.23,62.57l-8.4,17.64h16.76L244.23,62.57z M97.12,59.71c-2.5,0-4.28-0.42-5.35-1.24
			c-1.06-0.83-1.59-1.9-1.59-3.24c0,1.22-0.47,2.23-1.42,3.04c-0.95,0.81-2.32,1.29-4.1,1.43v34.85c2.19,0,3.81,0.42,4.86,1.26
			c0.49,0.39,0.86,0.83,1.11,1.32c0.27-0.5,0.65-0.95,1.17-1.33c1.08-0.83,2.85-1.24,5.32-1.24h1.62V59.71H97.12z M12.33-10.78
			v175.77h275.77V-10.78H12.33z M145.97,103.46H97.12c-2.5,0-4.28-0.41-5.35-1.24c-0.49-0.38-0.87-0.82-1.13-1.32
			c-0.25,0.49-0.64,0.93-1.14,1.32c-1.06,0.83-2.84,1.24-5.35,1.24H70.49c-2.47,0-4.23-0.41-5.29-1.24
			c-1.06-0.82-1.59-1.9-1.59-3.24c0-1.3,0.53-2.37,1.59-3.19c1.06-0.83,2.82-1.24,5.29-1.24h3.8V68l-11.9,22.95h-9.01L41.33,68
			v26.55h3.74c2.49,0,4.28,0.41,5.34,1.24c1.06,0.82,1.59,1.9,1.59,3.24c0,1.3-0.53,2.37-1.59,3.19c-1.06,0.83-2.84,1.24-5.34,1.24
			H31.46c-2.5,0-4.28-0.41-5.35-1.24c-1.06-0.82-1.59-1.9-1.59-3.24c0-1.3,0.53-2.37,1.57-3.19c1.04-0.83,2.67-1.24,4.86-1.24V59.71
			c-1.82-0.15-3.19-0.62-4.12-1.43c-0.93-0.81-1.39-1.83-1.39-3.04c0-1.33,0.53-2.41,1.59-3.24c1.06-0.83,2.84-1.24,5.35-1.24
			l11.38,0.04l14.13,26.81l13.87-26.85l11.49,0.04c2.49,0,4.27,0.41,5.34,1.22c1.06,0.82,1.59,1.89,1.59,3.22
			c0-1.33,0.54-2.41,1.59-3.24c1.06-0.83,2.84-1.24,5.35-1.24l46.57,0.04v13.56c0,2.12-0.47,3.63-1.42,4.54
			c-0.94,0.91-2.19,1.37-3.74,1.37c-1.55,0-2.81-0.45-3.77-1.35c-0.96-0.9-1.44-2.42-1.44-4.56v-4.65h-24.2v12.86h9.11
			c0-2.31,0.25-3.81,0.76-4.48c1.04-1.42,2.53-2.13,4.45-2.13c1.52,0,2.76,0.45,3.72,1.37c0.96,0.91,1.44,2.44,1.44,4.58v10.26
			c0,1.94-0.27,3.24-0.81,3.91c-1.08,1.36-2.53,2.04-4.36,2.04c-1.92,0-3.41-0.71-4.45-2.13c-0.51-0.67-0.76-2.17-0.76-4.52h-9.11
			v13.08h26.48v-4.82c0-2.14,0.48-3.67,1.44-4.59c0.96-0.91,2.22-1.37,3.77-1.37c1.52,0,2.76,0.46,3.72,1.37
			c0.96,0.92,1.44,2.44,1.44,4.59V103.46z M208.14,99.12c-4.69,2.17-8.68,3.66-11.98,4.46c-3.29,0.79-6.84,1.19-10.66,1.19
			c-5.3,0-10.21-0.68-14.73-2.04c-3.55-1.04-6.33-2.36-8.38-3.95c-2.04-1.59-3.92-3.95-5.64-7.06c-1.72-3.11-2.58-6.6-2.58-10.45
			v-6.43c0-5.94,2.11-11.24,6.33-15.91c5.67-6.31,13.38-9.47,23.13-9.47c2.84,0,5.53,0.25,8.08,0.74c2.54,0.49,4.97,1.23,7.26,2.21
			c1.38-1.07,2.73-1.61,4.05-1.61c1.52,0,2.75,0.45,3.69,1.35c0.95,0.9,1.42,2.41,1.42,4.56v5.78c0,2.14-0.48,3.67-1.44,4.58
			c-0.96,0.92-2.21,1.37-3.72,1.37c-1.22,0-2.26-0.32-3.14-0.95c-0.67-0.43-1.24-1.4-1.7-2.89c-0.45-1.49-0.97-2.5-1.54-3.02
			c-0.91-0.84-2.53-1.59-4.84-2.24c-2.32-0.65-4.91-0.98-7.77-0.98c-4.12,0-7.69,0.73-10.73,2.17c-2.16,1.08-4.15,2.94-5.98,5.6
			c-1.82,2.67-2.73,5.56-2.73,8.69v6.43c0,4.78,1.61,8.41,4.84,10.89c3.22,2.48,8.35,3.72,15.37,3.72c4.75,0,9.09-0.77,13.01-2.3
			v-6.39h-10.58c-2.49,0-4.27-0.41-5.34-1.23c-1.06-0.83-1.59-1.91-1.59-3.24c0-1.33,0.53-2.41,1.59-3.24
			c1.06-0.82,2.84-1.23,5.34-1.23l18.43,0.04c2.5,0,4.28,0.41,5.35,1.22c1.06,0.81,1.59,1.89,1.59,3.22c0,1.04-0.36,1.95-1.09,2.74
			c-0.72,0.78-1.83,1.36-3.31,1.73V99.12z M276.13,102.22c-1.05,0.83-2.82,1.24-5.32,1.24h-13.97c-2.49,0-4.27-0.41-5.34-1.24
			c-1.06-0.82-1.59-1.9-1.59-3.24c0-1.3,0.53-2.37,1.59-3.19c1.06-0.83,2.84-1.24,5.34-1.24h2.54l-2.48-5.43h-25.21l-2.53,5.43h2.53
			c2.5,0,4.28,0.41,5.34,1.24c1.06,0.82,1.59,1.9,1.59,3.24c0,1.3-0.53,2.37-1.59,3.19c-1.06,0.83-2.84,1.24-5.34,1.24H217.7
			c-2.49,0-4.27-0.41-5.34-1.24c-1.06-0.82-1.59-1.9-1.59-3.24c0-1.33,0.56-2.41,1.67-3.25c1.11-0.84,2.95-1.23,5.52-1.17
			l16.3-34.85h-6.78c-2.5,0-4.28-0.42-5.35-1.24c-1.06-0.83-1.59-1.9-1.59-3.24c0-1.33,0.53-2.41,1.59-3.24
			c1.06-0.83,2.84-1.24,5.35-1.24l22.43,0.04l20.65,43.76c2.43,0,4.03,0.23,4.81,0.69c1.55,0.96,2.33,2.21,2.33,3.78
			C277.7,100.34,277.18,101.4,276.13,102.22z M235.83,80.22h16.76l-8.35-17.64L235.83,80.22z M84.67,59.71v34.85
			c2.19,0,3.81,0.42,4.86,1.26c0.49,0.39,0.86,0.83,1.11,1.32c0.27-0.5,0.65-0.95,1.17-1.33c1.08-0.83,2.85-1.24,5.32-1.24h1.62
			V59.71h-1.62c-2.5,0-4.28-0.42-5.35-1.24c-1.06-0.83-1.59-1.9-1.59-3.24c0,1.22-0.47,2.23-1.42,3.04
			C87.82,59.08,86.45,59.56,84.67,59.71z M97.12,59.71c-2.5,0-4.28-0.42-5.35-1.24c-1.06-0.83-1.59-1.9-1.59-3.24
			c0,1.22-0.47,2.23-1.42,3.04c-0.95,0.81-2.32,1.29-4.1,1.43v34.85c2.19,0,3.81,0.42,4.86,1.26c0.49,0.39,0.86,0.83,1.11,1.32
			c0.27-0.5,0.65-0.95,1.17-1.33c1.08-0.83,2.85-1.24,5.32-1.24h1.62V59.71H97.12z M97.12,59.71c-2.5,0-4.28-0.42-5.35-1.24
			c-1.06-0.83-1.59-1.9-1.59-3.24c0,1.22-0.47,2.23-1.42,3.04c-0.95,0.81-2.32,1.29-4.1,1.43v34.85c2.19,0,3.81,0.42,4.86,1.26
			c0.49,0.39,0.86,0.83,1.11,1.32c0.27-0.5,0.65-0.95,1.17-1.33c1.08-0.83,2.85-1.24,5.32-1.24h1.62V59.71H97.12z"/>
	</g>
</g>
</svg>
