<svg xmlns="http://www.w3.org/2000/svg" width="63" height="99" viewBox="0 0 63 99">
  <defs>
    <style>
      .cls-1 {
        fill: #fff;
        fill-rule: evenodd;
      }
    </style>
  </defs>
  <path class="cls-1" d="M1776,1116h63v99h-63v-99Zm51.64,37.69-5.5,21.16a1.4,1.4,0,0,1-1.35,1.05h-25.8a1.4,1.4,0,0,1-1.36-1.05l-5.5-21.16h0l-1.56-6h-6.2a1.405,1.405,0,0,1,0-2.81h7.29a1.39,1.39,0,0,1,1.35,1.05l1.56,6h6.64a12.7,12.7,0,0,1,21.17,0h7.91A1.4,1.4,0,0,1,1827.64,1153.69Zm-5,8.1h-2.47a12.515,12.515,0,0,1-1.83,4.25h3.19Zm-2.94,11.3,1.1-4.24h-5.05a12.366,12.366,0,0,1-1.01.73v3.51h4.96Zm-7.77,0v-2.14a12.466,12.466,0,0,1-8.09.07v2.07h8.09Zm-15.86,0h4.96v-3.4a14.16,14.16,0,0,1-1.19-.84h-4.87Zm-1.83-7.05h3.01a12.921,12.921,0,0,1-1.83-4.25h-2.28Zm-2.94-11.3,1.11,4.24h2.69c0-.01-0.01-0.02-0.01-0.03a12.751,12.751,0,0,1,.73-4.21h-4.52Zm28.47,0a12.751,12.751,0,0,1,.73,4.21v0.03h2.87l1.1-4.24h-4.7Zm-21.06,22.3a5.135,5.135,0,1,1-5.13,5.13A5.134,5.134,0,0,1,1798.71,1177.04Zm0,7.46a2.325,2.325,0,1,0-2.32-2.33A2.33,2.33,0,0,0,1798.71,1184.5Zm18.35-7.46a5.135,5.135,0,1,1-5.13,5.13A5.134,5.134,0,0,1,1817.06,1177.04Zm0,7.46a2.325,2.325,0,1,0-2.32-2.33A2.33,2.33,0,0,0,1817.06,1184.5Z" transform="translate(-1776 -1116)"/>
</svg>
